<svg xmlns="http://www.w3.org/2000/svg" fill="currentColor" viewBox="0 0 24 24">
<path d="M12 .5C5.65.5.5 5.65.5 12a11.5 11.5 0 008.06 10.93c.59.11.81-.25.81-.57v-2c-3.29.72-3.99-1.59-3.99-1.59a3.15 3.15 0 00-1.33-1.75c-1.09-.74.08-.73.08-.73a2.5 2.5 0 011.83 1.23 2.52 2.52 0 003.44.98c.05-.77.3-1.33.55-1.64-2.63-.3-5.4-1.32-5.4-5.86a4.6 4.6 0 011.22-3.18 4.2 4.2 0 01.12-3.13s1-.32 3.3 1.2a11.4 11.4 0 016 0c2.3-1.52 3.3-1.2 3.3-1.2a4.2 4.2 0 01.12 3.13 4.6 4.6 0 011.22 3.18c0 4.55-2.77 5.56-5.41 5.86.33.29.63.86.63 1.74v2.58c0 .32.22.68.82.57A11.5 11.5 0 0023.5 12c0-6.35-5.15-11.5-11.5-11.5z"></path>
</svg>
